<?xml version="1.0" encoding="UTF-8" standalone="no"?>
<!DOCTYPE svg PUBLIC "-//W3C//DTD SVG 1.1//EN" "http://www.w3.org/Graphics/SVG/1.1/DTD/svg11.dtd">
<svg width="100%" height="100%" viewBox="0 0 411 123" version="1.1" xmlns="http://www.w3.org/2000/svg"
	xmlns:xlink="http://www.w3.org/1999/xlink" xml:space="preserve" xmlns:serif="http://www.serif.com/"
	style="fill-rule:evenodd;clip-rule:evenodd;stroke-linejoin:round;stroke-miterlimit:2;">
	<g transform="matrix(1,0,0,1,-58.7954,-146.876)">
		<g transform="matrix(1,0,0,1,14.2449,-41.8183)">
			<g>
				<g transform="matrix(1.35555,0,0,1.35555,227.332,231.07)">
					<path
						d="M0,30.882C0,31.849 -0.061,32.59 -0.181,33.106C-0.302,33.623 -0.461,33.985 -0.659,34.194C-0.856,34.403 -1.147,34.59 -1.532,34.754C-1.917,34.919 -2.367,35.061 -2.883,35.182C-3.399,35.302 -3.96,35.396 -4.563,35.463C-5.168,35.528 -5.778,35.561 -6.393,35.561C-8.041,35.561 -9.47,35.353 -10.677,34.935C-11.886,34.518 -12.886,33.875 -13.677,33.007C-14.467,32.139 -15.05,31.046 -15.423,29.728C-15.797,28.41 -15.983,26.85 -15.983,25.048L-15.983,9.987L-19.509,9.987C-19.927,9.987 -20.246,9.729 -20.466,9.213C-20.685,8.697 -20.795,7.834 -20.795,6.626C-20.795,5.989 -20.768,5.451 -20.712,5.011C-20.658,4.571 -20.576,4.225 -20.466,3.972C-20.355,3.721 -20.218,3.539 -20.053,3.428C-19.889,3.32 -19.696,3.264 -19.477,3.264L-15.983,3.264L-15.983,-3.294C-15.983,-3.514 -15.923,-3.712 -15.802,-3.888C-15.682,-4.063 -15.461,-4.212 -15.143,-4.332C-14.824,-4.453 -14.396,-4.541 -13.857,-4.596C-13.319,-4.651 -12.654,-4.679 -11.864,-4.679C-11.051,-4.679 -10.375,-4.651 -9.837,-4.596C-9.299,-4.541 -8.876,-4.453 -8.568,-4.332C-8.261,-4.212 -8.041,-4.063 -7.909,-3.888C-7.777,-3.712 -7.711,-3.514 -7.711,-3.294L-7.711,3.264L-1.318,3.264C-1.099,3.264 -0.905,3.32 -0.741,3.428C-0.576,3.539 -0.439,3.721 -0.329,3.972C-0.22,4.225 -0.137,4.571 -0.082,5.011C-0.027,5.451 0,5.989 0,6.626C0,7.834 -0.109,8.697 -0.329,9.213C-0.549,9.729 -0.867,9.987 -1.284,9.987L-7.711,9.987L-7.711,23.796C-7.711,25.4 -7.459,26.603 -6.953,27.404C-6.447,28.207 -5.547,28.608 -4.251,28.608C-3.812,28.608 -3.416,28.569 -3.064,28.492C-2.714,28.415 -2.399,28.328 -2.125,28.229C-1.851,28.13 -1.62,28.042 -1.433,27.965C-1.246,27.888 -1.076,27.85 -0.923,27.85C-0.79,27.85 -0.664,27.888 -0.544,27.965C-0.423,28.042 -0.329,28.195 -0.264,28.426C-0.197,28.657 -0.137,28.969 -0.082,29.366C-0.027,29.761 0,30.266 0,30.882"
						style="fill:rgb(66,226,210);fill-rule:nonzero;" />
				</g>
				<g transform="matrix(1.35555,0,0,1.35555,258.428,261.317)">
					<path
						d="M0,-6.46C0.066,-8.788 -0.401,-10.617 -1.401,-11.947C-2.4,-13.276 -3.944,-13.941 -6.031,-13.941C-7.086,-13.941 -8.003,-13.743 -8.782,-13.347C-9.563,-12.952 -10.211,-12.419 -10.728,-11.749C-11.244,-11.079 -11.64,-10.288 -11.913,-9.376C-12.188,-8.464 -12.348,-7.492 -12.392,-6.46L0,-6.46ZM8.041,-4.087C8.041,-3.077 7.815,-2.329 7.366,-1.846C6.915,-1.362 6.294,-1.121 5.504,-1.121L-12.392,-1.121C-12.392,0.132 -12.243,1.269 -11.947,2.29C-11.65,3.311 -11.178,4.18 -10.53,4.894C-9.882,5.608 -9.047,6.152 -8.024,6.525C-7.004,6.899 -5.779,7.085 -4.351,7.085C-2.9,7.085 -1.626,6.981 -0.527,6.772C0.571,6.563 1.521,6.333 2.323,6.08C3.125,5.828 3.79,5.597 4.317,5.388C4.845,5.179 5.273,5.075 5.603,5.075C5.8,5.075 5.965,5.114 6.097,5.19C6.229,5.268 6.338,5.404 6.427,5.602C6.514,5.8 6.574,6.08 6.607,6.442C6.641,6.805 6.657,7.261 6.657,7.811C6.657,8.293 6.646,8.706 6.624,9.046C6.602,9.387 6.569,9.678 6.525,9.919C6.48,10.161 6.415,10.365 6.328,10.529C6.239,10.694 6.124,10.854 5.981,11.007C5.839,11.161 5.448,11.37 4.812,11.633C4.174,11.897 3.361,12.155 2.373,12.408C1.384,12.66 0.252,12.88 -1.022,13.067C-2.297,13.253 -3.658,13.347 -5.108,13.347C-7.723,13.347 -10.014,13.018 -11.979,12.359C-13.946,11.7 -15.589,10.7 -16.906,9.359C-18.225,8.019 -19.208,6.327 -19.856,4.284C-20.504,2.241 -20.828,-0.154 -20.828,-2.9C-20.828,-5.515 -20.488,-7.871 -19.808,-9.97C-19.126,-12.068 -18.138,-13.847 -16.841,-15.309C-15.545,-16.77 -13.969,-17.884 -12.111,-18.653C-10.255,-19.423 -8.162,-19.807 -5.833,-19.807C-3.373,-19.807 -1.269,-19.445 0.478,-18.72C2.225,-17.994 3.658,-16.99 4.779,-15.704C5.898,-14.419 6.723,-12.897 7.251,-11.14C7.777,-9.381 8.041,-7.47 8.041,-5.405L8.041,-4.087Z"
						style="fill:rgb(66,226,210);fill-rule:nonzero;" />
				</g>
				<g transform="matrix(1.35555,0,0,1.35555,288.002,217.983)">
					<path
						d="M0,43.436C0,43.656 -0.064,43.849 -0.197,44.013C-0.329,44.178 -0.555,44.315 -0.873,44.425C-1.191,44.535 -1.614,44.617 -2.142,44.672C-2.669,44.727 -3.339,44.754 -4.151,44.754C-4.965,44.754 -5.635,44.727 -6.162,44.672C-6.689,44.617 -7.113,44.535 -7.431,44.425C-7.75,44.315 -7.975,44.178 -8.106,44.013C-8.239,43.849 -8.304,43.656 -8.304,43.436L-8.304,0.099C-8.304,-0.121 -8.239,-0.319 -8.106,-0.495C-7.975,-0.67 -7.75,-0.819 -7.431,-0.939C-7.113,-1.06 -6.689,-1.154 -6.162,-1.219C-5.635,-1.286 -4.965,-1.318 -4.151,-1.318C-3.339,-1.318 -2.669,-1.286 -2.142,-1.219C-1.614,-1.154 -1.191,-1.06 -0.873,-0.939C-0.555,-0.819 -0.329,-0.67 -0.197,-0.495C-0.064,-0.319 0,-0.121 0,0.099L0,43.436Z"
						style="fill:rgb(66,226,210);fill-rule:nonzero;" />
				</g>
				<g transform="matrix(1.35555,0,0,1.35555,323.297,261.317)">
					<path
						d="M0,-6.46C0.066,-8.788 -0.401,-10.617 -1.4,-11.947C-2.4,-13.276 -3.943,-13.941 -6.03,-13.941C-7.086,-13.941 -8.003,-13.743 -8.782,-13.347C-9.563,-12.952 -10.211,-12.419 -10.727,-11.749C-11.243,-11.079 -11.639,-10.288 -11.913,-9.376C-12.188,-8.464 -12.347,-7.492 -12.391,-6.46L0,-6.46ZM8.042,-4.087C8.042,-3.077 7.815,-2.329 7.366,-1.846C6.915,-1.362 6.295,-1.121 5.504,-1.121L-12.391,-1.121C-12.391,0.132 -12.243,1.269 -11.946,2.29C-11.65,3.311 -11.178,4.18 -10.529,4.894C-9.881,5.608 -9.046,6.152 -8.024,6.525C-7.003,6.899 -5.778,7.085 -4.351,7.085C-2.899,7.085 -1.626,6.981 -0.526,6.772C0.571,6.563 1.521,6.333 2.324,6.08C3.126,5.828 3.79,5.597 4.318,5.388C4.845,5.179 5.273,5.075 5.603,5.075C5.801,5.075 5.966,5.114 6.097,5.19C6.229,5.268 6.339,5.404 6.427,5.602C6.515,5.8 6.575,6.08 6.608,6.442C6.641,6.805 6.657,7.261 6.657,7.811C6.657,8.293 6.646,8.706 6.625,9.046C6.603,9.387 6.569,9.678 6.525,9.919C6.481,10.161 6.416,10.365 6.328,10.529C6.239,10.694 6.124,10.854 5.981,11.007C5.839,11.161 5.449,11.37 4.812,11.633C4.175,11.897 3.362,12.155 2.373,12.408C1.385,12.66 0.253,12.88 -1.021,13.067C-2.296,13.253 -3.657,13.347 -5.108,13.347C-7.723,13.347 -10.013,13.018 -11.979,12.359C-13.945,11.7 -15.588,10.7 -16.906,9.359C-18.225,8.019 -19.208,6.327 -19.855,4.284C-20.504,2.241 -20.828,-0.154 -20.828,-2.9C-20.828,-5.515 -20.487,-7.871 -19.807,-9.97C-19.125,-12.068 -18.137,-13.847 -16.84,-15.309C-15.544,-16.77 -13.968,-17.884 -12.11,-18.653C-10.254,-19.423 -8.162,-19.807 -5.833,-19.807C-3.372,-19.807 -1.269,-19.445 0.479,-18.72C2.226,-17.994 3.659,-16.99 4.779,-15.704C5.899,-14.419 6.724,-12.897 7.251,-11.14C7.778,-9.381 8.042,-7.47 8.042,-5.405L8.042,-4.087Z"
						style="fill:rgb(66,226,210);fill-rule:nonzero;" />
				</g>
				<g transform="matrix(1.35555,0,0,1.35555,389.462,242.867)">
					<path
						d="M0,10.315C0,12.929 -0.385,15.269 -1.153,17.335C-1.923,19.399 -3.054,21.146 -4.548,22.574C-6.042,24.003 -7.889,25.09 -10.085,25.837C-12.281,26.584 -14.809,26.958 -17.664,26.958C-20.346,26.958 -22.751,26.622 -24.883,25.952C-27.014,25.282 -28.815,24.267 -30.286,22.903C-31.76,21.542 -32.886,19.845 -33.665,17.813C-34.445,15.78 -34.834,13.402 -34.834,10.677L-34.834,-15.26C-34.834,-15.479 -34.77,-15.677 -34.637,-15.853C-34.505,-16.028 -34.269,-16.171 -33.929,-16.282C-33.588,-16.391 -33.144,-16.479 -32.594,-16.544C-32.045,-16.611 -31.342,-16.643 -30.485,-16.643C-29.649,-16.643 -28.958,-16.611 -28.408,-16.544C-27.859,-16.479 -27.419,-16.391 -27.09,-16.282C-26.76,-16.171 -26.524,-16.028 -26.381,-15.853C-26.238,-15.677 -26.167,-15.479 -26.167,-15.26L-26.167,9.919C-26.167,11.611 -25.958,13.078 -25.541,14.319C-25.124,15.56 -24.524,16.587 -23.745,17.4C-22.965,18.213 -22.031,18.823 -20.943,19.23C-19.856,19.636 -18.643,19.839 -17.303,19.839C-15.94,19.839 -14.721,19.63 -13.644,19.212C-12.567,18.795 -11.656,18.186 -10.908,17.383C-10.161,16.582 -9.585,15.593 -9.178,14.418C-8.771,13.243 -8.569,11.907 -8.569,10.414L-8.569,-15.26C-8.569,-15.479 -8.503,-15.677 -8.371,-15.853C-8.239,-16.028 -8.009,-16.171 -7.679,-16.282C-7.35,-16.391 -6.904,-16.479 -6.344,-16.544C-5.783,-16.611 -5.087,-16.643 -4.251,-16.643C-3.417,-16.643 -2.73,-16.611 -2.191,-16.544C-1.653,-16.479 -1.219,-16.391 -0.89,-16.282C-0.56,-16.171 -0.33,-16.028 -0.197,-15.853C-0.065,-15.677 0,-15.479 0,-15.26L0,10.315Z"
						style="fill:rgb(172,255,118);fill-rule:nonzero;" />
				</g>
				<g transform="matrix(1.35555,0,0,1.35555,438.649,273.825)">
					<path
						d="M0,-35.725C0,-35.087 -0.027,-34.543 -0.083,-34.094C-0.138,-33.642 -0.221,-33.281 -0.33,-33.006C-0.44,-32.73 -0.577,-32.528 -0.742,-32.396C-0.907,-32.264 -1.088,-32.199 -1.286,-32.199L-11.963,-32.199L-11.963,2.175C-11.963,2.395 -12.035,2.592 -12.178,2.769C-12.321,2.945 -12.557,3.088 -12.887,3.196C-13.216,3.307 -13.661,3.394 -14.221,3.461C-14.781,3.526 -15.479,3.559 -16.313,3.559C-17.149,3.559 -17.846,3.526 -18.406,3.461C-18.967,3.394 -19.412,3.307 -19.741,3.196C-20.071,3.088 -20.308,2.945 -20.45,2.769C-20.593,2.592 -20.664,2.395 -20.664,2.175L-20.664,-32.199L-31.342,-32.199C-31.562,-32.199 -31.749,-32.264 -31.902,-32.396C-32.056,-32.528 -32.188,-32.73 -32.297,-33.006C-32.408,-33.281 -32.489,-33.642 -32.545,-34.094C-32.6,-34.543 -32.627,-35.087 -32.627,-35.725C-32.627,-36.384 -32.6,-36.944 -32.545,-37.406C-32.489,-37.867 -32.408,-38.234 -32.297,-38.509C-32.188,-38.784 -32.056,-38.982 -31.902,-39.102C-31.749,-39.224 -31.562,-39.284 -31.342,-39.284L-1.286,-39.284C-1.088,-39.284 -0.907,-39.224 -0.742,-39.102C-0.577,-38.982 -0.44,-38.784 -0.33,-38.509C-0.221,-38.234 -0.138,-37.867 -0.083,-37.406C-0.027,-36.944 0,-36.384 0,-35.725"
						style="fill:rgb(172,255,118);fill-rule:nonzero;" />
				</g>
				<g transform="matrix(1.35555,0,0,1.35555,455.449,222.182)">
					<path
						d="M0,40.272C0,40.492 -0.072,40.689 -0.215,40.866C-0.357,41.042 -0.594,41.185 -0.923,41.293C-1.253,41.404 -1.692,41.491 -2.241,41.558C-2.791,41.624 -3.494,41.656 -4.351,41.656C-5.186,41.656 -5.883,41.624 -6.443,41.558C-7.004,41.491 -7.448,41.404 -7.778,41.293C-8.107,41.185 -8.345,41.042 -8.487,40.866C-8.63,40.689 -8.701,40.492 -8.701,40.272L-8.701,0C-8.701,-0.22 -8.63,-0.417 -8.487,-0.594C-8.345,-0.769 -8.103,-0.912 -7.762,-1.022C-7.421,-1.131 -6.976,-1.22 -6.427,-1.285C-5.878,-1.352 -5.186,-1.384 -4.351,-1.384C-3.494,-1.384 -2.791,-1.352 -2.241,-1.285C-1.692,-1.22 -1.253,-1.131 -0.923,-1.022C-0.594,-0.912 -0.357,-0.769 -0.215,-0.594C-0.072,-0.417 0,-0.22 0,0L0,40.272Z"
						style="fill:rgb(172,255,118);fill-rule:nonzero;" />
				</g>
				<g transform="matrix(1.35555,0,0,1.35555,109.9,303.114)">
					<path
						d="M0,-78.365C-13.836,-78.365 -27.672,-78.362 -41.509,-78.375C-41.997,-78.376 -42.183,-78.308 -42.182,-77.75C-42.165,-59.057 -42.166,-40.365 -42.182,-21.673C-42.182,-21.158 -42.022,-21.074 -41.557,-21.074C-13.842,-21.085 13.872,-21.085 41.587,-21.071C42.113,-21.071 42.229,-21.201 42.229,-21.719C42.215,-40.37 42.214,-59.02 42.231,-77.671C42.232,-78.26 42.066,-78.378 41.51,-78.377C27.673,-78.362 13.837,-78.365 0,-78.365M-48.209,-19.596L-48.209,-79.887C-48.082,-79.923 -48.088,-80.035 -48.062,-80.132C-47.516,-82.156 -46.316,-83.578 -44.283,-84.232C-44.189,-84.262 -44.075,-84.274 -44.063,-84.409L43.861,-84.409L43.919,-84.311C46.303,-83.959 48.276,-81.44 48.272,-78.634C48.244,-59.355 48.258,-40.075 48.256,-20.796C48.256,-20.42 48.249,-20.047 48.188,-19.671C47.817,-17.399 45.874,-14.988 42.531,-15.007C31.584,-15.068 20.635,-15.027 9.687,-15.039C9.218,-15.04 9.046,-14.957 9.055,-14.434C9.09,-12.363 9.066,-10.29 9.069,-8.218C9.076,-4.464 11.658,-1.894 15.43,-1.886C17.355,-1.883 19.281,-1.903 21.207,-1.876C22.84,-1.854 24.153,-0.517 24.129,1.114C24.107,2.556 23.581,3.845 22.746,5.008C22.241,5.712 21.585,6.044 20.667,6.042C6.893,6.02 -6.882,6.021 -20.656,6.043C-21.553,6.044 -22.182,5.705 -22.688,5.037C-23.383,4.122 -23.786,3.078 -24.024,1.961C-24.471,-0.129 -23.092,-1.871 -20.958,-1.884C-19.095,-1.894 -17.231,-1.883 -15.369,-1.887C-11.604,-1.895 -9.043,-4.463 -9.035,-8.243C-9.03,-10.252 -9.067,-12.263 -9.015,-14.271C-8.998,-14.928 -9.192,-15.045 -9.806,-15.044C-20.733,-15.025 -31.661,-15.054 -42.588,-15.013C-45.468,-15.002 -47.292,-16.874 -47.941,-18.856C-48.022,-19.105 -47.996,-19.395 -48.209,-19.596"
						style="fill:rgb(66,226,210);fill-rule:nonzero;" />
				</g>
				<g transform="matrix(1.35555,0,0,1.35555,153.774,231.776)">
					<path
						d="M0,5.806L-1.211,5.806C-1.734,5.806 -2.18,6.14 -2.345,6.609L-16.776,6.609L-18.429,-2.341L-20.411,6.634L-24.396,6.634L-25.681,17.248L-30.579,-18.523L-34.264,6.695L-36.939,6.695L-37.801,13.236L-41.556,-5.094L-44.072,6.609L-65.894,6.609L-65.894,7.514L-43.343,7.514L-41.577,-0.683L-37.607,18.704L-36.146,7.602L-33.479,7.602L-30.606,-12.055L-25.625,24.329L-23.593,7.538L-19.682,7.538L-18.508,2.223L-17.53,7.514L-2.369,7.514C-2.219,8.013 -1.756,8.381 -1.211,8.381L0,8.381C0.665,8.381 1.211,7.838 1.211,7.173L1.211,7.017C1.211,6.346 0.665,5.806 0,5.806"
						style="fill:rgb(172,255,118);fill-rule:nonzero;" />
				</g>
			</g>
		</g>
	</g>
</svg>